<?xml version='1.0' encoding='utf-8'?>
<svg xmlns="http://www.w3.org/2000/svg" enable-background="new 0 0 256 256" version="1.1" viewBox="0 0 256 256">
		<path d="m185 156.81s-14.5 14-57 14c-41.5 0-57-14-57-14v-49.814h114v49.814z" fill="#021923"/>
		<path d="m127.75 172.81c-41.789 0-57.56-13.923-58.216-14.516l-0.534-0.595v-52.703h118v52.663l-0.735 0.59c-0.617 0.594-15.7 14.561-58.515 14.561zm-54.75-16.964c3 2.479 19.511 12.964 55 12.964 36.333 0 52-10.47 55-12.932v-46.882h-110v46.85z"/>
		<polyline points="165 125 165 177.48 168.5 172.81 172 175.81 172 123" fill="#EDC10C"/>
		<polygon points="163 183.48 163 125 167 125 167 171.48 168.18 169.91 170 171.46 170 123 174 123 174 180.16 168.82 175.72"/>
		<polygon points="128 138.64 38 106.64 128 74.642 218 106.64" fill="#093449"/>
		<path d="M128,140.765l-95.97-34.123L128,72.52l95.97,34.123L128,140.765z M43.97,106.642L128,136.52l84.03-29.877L128,76.765    L43.97,106.642z"/>
</svg>