<svg width="375" height="105" viewBox="0 0 375 105" fill="none" xmlns="http://www.w3.org/2000/svg">
<path d="M375 105H0L6 101V100.5V91.5L0.5 88L1 81.5L6 78.5L11.5 81L30.5 71L32 68.5L35.5 65L53.5 53.5L67 61.5V49L97 32.5L104.5 36.5L160.5 7.5L206 33L218 27L223 30.5V39.5L239 32L254.5 40V55L263 48.5L267 51L271 49L274.5 52L281.5 48L292 55L302.5 49L321.5 58.5L326 55.5L333 59V49.5L335 48.5L337.5 50.5L339 49L348.5 53.8267V71.5L368.5 83V97.5L373.5 104.5L375 105Z" fill="#FFCD02"/>
<g clip-path="url(#clip0_4314_22289)">
<path d="M83.6938 103.521L92.1536 97.9111" stroke="black" stroke-width="1.03126" stroke-miterlimit="10" stroke-linecap="round" stroke-linejoin="round"/>
<path d="M104.549 91.7303L92.1533 84.9824V102.283L97.0174 104.191" stroke="black" stroke-width="1.03126" stroke-miterlimit="10" stroke-linecap="round" stroke-linejoin="round"/>
<path d="M95.4809 83.3633L92.1533 84.9824" stroke="black" stroke-width="1.03126" stroke-miterlimit="10" stroke-linecap="round" stroke-linejoin="round"/>
<path d="M95.8037 73.4771L97.7631 75.1408L99.2825 73.4771L100.709 75.1408L101.85 74.3089L103.277 75.9486L104.518 75.1408L106.776 76.6155L107.364 75.1408L109.076 76.6155L110.788 75.0446L113.229 75.8524" stroke="black" stroke-width="1.03126" stroke-miterlimit="10" stroke-linecap="round" stroke-linejoin="round"/>
<path d="M100.094 66.5091C100.094 66.5091 104.48 70.2182 109.011 66.9973L104.989 58.5513L100.094 66.5091Z" fill="black" stroke="black" stroke-width="1.03126" stroke-miterlimit="10" stroke-linecap="round" stroke-linejoin="round"/>
<path d="M97.7631 75.1408V87.6018L99.3237 88.884L100.709 75.1408L101.85 74.3089L103.277 75.9486L102.039 89.7331L104.549 91.7303L113.229 86.9693V75.8524L104.989 58.5513L95.8037 73.477V86.9693" stroke="black" stroke-width="1.03126" stroke-miterlimit="10" stroke-linecap="round" stroke-linejoin="round"/>
<path d="M104.518 75.1406L104.549 91.7301L108.227 89.7123L106.777 76.6153L107.364 75.1406L109.076 76.6153L110.217 87.832" stroke="black" stroke-width="1.03126" stroke-miterlimit="10" stroke-linecap="round" stroke-linejoin="round"/>
<path d="M113.229 86.9694L115.635 85.646V93.3461L108.124 97.9111V93.8239L111.881 91.7304V94.9617" stroke="black" stroke-width="1.03126" stroke-miterlimit="10" stroke-linecap="round" stroke-linejoin="round"/>
<path d="M108.124 97.9107V99.8667L112.362 102.359L124.198 96.0235V94.2773L115.986 87.7666" stroke="black" stroke-width="1.03126" stroke-miterlimit="10" stroke-linecap="round" stroke-linejoin="round"/>
<path d="M112.363 102.359V100.173L123.631 94.2773" stroke="black" stroke-width="1.03126" stroke-miterlimit="10" stroke-linecap="round" stroke-linejoin="round"/>
<path d="M110.217 97.069L113.229 99.3859L115.026 98.3168L111.881 95.6286L114.631 93.958L117.646 97.069L119.681 95.5874L115.635 93.3461L119.973 90.9295L118.168 89.4961L115.944 90.8264" stroke="black" stroke-width="1.03126" stroke-miterlimit="10" stroke-linecap="round" stroke-linejoin="round"/>
<path d="M95.1958 90.8262V99.6916" stroke="black" stroke-width="1.03126" stroke-miterlimit="10" stroke-linecap="round" stroke-linejoin="round"/>
<path d="M98.3511 92.5728V101.311" stroke="black" stroke-width="1.03126" stroke-miterlimit="10" stroke-linecap="round" stroke-linejoin="round"/>
<path d="M101.483 94.2773V103.232" stroke="black" stroke-width="1.03126" stroke-miterlimit="10" stroke-linecap="round" stroke-linejoin="round"/>
<path d="M113.837 104.192L115.635 103.233V100.716" stroke="black" stroke-width="1.03126" stroke-miterlimit="10" stroke-linecap="round" stroke-linejoin="round"/>
<path d="M117.997 100.015L123.631 103.521" stroke="black" stroke-width="1.03126" stroke-miterlimit="10" stroke-linecap="round" stroke-linejoin="round"/>
<path d="M104.549 91.7305V104.009" stroke="black" stroke-width="1.03126" stroke-miterlimit="10" stroke-linecap="round" stroke-linejoin="round"/>
<path d="M61.1642 104.009L55.4236 100.29C55.4236 100.29 49.9476 101.184 45.2554 94.312L33.8428 101.311V103.882" stroke="black" stroke-width="1.03126" stroke-miterlimit="10" stroke-linecap="round" stroke-linejoin="round"/>
<path d="M45.2619 93.8407C45.2619 93.8407 40.9066 81.8197 49.3113 82.5175C57.7161 83.2153 58.2833 93.4489 58.2833 93.4489C58.2833 93.4489 59.1255 99.0658 54.0001 100.286" stroke="black" stroke-width="1.03126" stroke-miterlimit="10" stroke-linecap="round" stroke-linejoin="round"/>
<path d="M55.4234 100.29C59.4418 99.1627 60.3768 96.4092 60.3768 96.4092C62.3809 90.9642 59.9403 86.8735 59.9403 86.8735C55.1931 78.8606 50.1433 80.6894 50.1433 80.6894L47.0942 82.4907" stroke="black" stroke-width="1.03126" stroke-miterlimit="10" stroke-linecap="round" stroke-linejoin="round"/>
<path d="M49.4009 90.5758L47.7027 87.616C47.7027 87.616 47.3555 86.0932 48.2699 86.2651C49.1843 86.4404 48.4452 82.5629 49.4009 84.7423C50.3599 86.9182 50.9684 88.8811 50.9684 88.8811L54.1275 86.5298C54.1275 86.5298 55.059 86.877 54.4506 87.7501C53.8422 88.6198 55.3444 87.2276 53.5465 89.0117C51.7487 90.7958 51.7487 90.7958 51.7487 90.7958L54.6569 95.6736C54.6569 95.6736 54.1962 96.6327 54.1275 96.7186C54.0587 96.8046 53.7975 97.8496 53.0997 96.7186C52.4018 95.5877 50.7037 92.7551 50.7037 92.7551L48.6137 94.498C48.6137 94.498 47.438 94.3227 47.8299 93.8002C48.2252 93.2742 45.7846 94.8864 49.4009 90.5758Z" fill="black" stroke="black" stroke-width="1.03126" stroke-miterlimit="10" stroke-linecap="round" stroke-linejoin="round"/>
<path d="M55.0692 104.212L55.0726 100.716L51.2363 100.287V104.212" stroke="black" stroke-width="1.03126" stroke-miterlimit="10" stroke-linecap="round" stroke-linejoin="round"/>
<path d="M16.4553 104.188C16.4553 104.188 17.6413 99.8191 12.5159 99.3413L4.3999 104.212" stroke="black" stroke-width="1.03126" stroke-miterlimit="10" stroke-linecap="round" stroke-linejoin="round"/>
<path d="M10.5083 100.548C10.5083 100.548 11.0067 95.4256 15.1558 98.2684C19.3049 101.111 18.7309 104.212 18.7309 104.212" stroke="black" stroke-width="1.03126" stroke-miterlimit="10" stroke-linecap="round" stroke-linejoin="round"/>
<path d="M12.5884 97.1513L14.5753 96.2197C14.5753 96.2197 17.7619 97.1754 19.7659 101.022C20.6013 102.624 20.2438 103.882 20.2438 103.882" stroke="black" stroke-width="1.03126" stroke-miterlimit="10" stroke-linecap="round" stroke-linejoin="round"/>
<path d="M7.6485 102.263L6.10848 101.066L0.515625 104.188" stroke="black" stroke-width="1.03126" stroke-miterlimit="10" stroke-linecap="round" stroke-linejoin="round"/>
<path d="M6.16684 100.489V91.4106L0.787109 88.2721V81.6033L6.16684 78.6333L11.3781 81.3249L6.50372 84.9102L1.47462 81.8268" stroke="black" stroke-width="1.03126" stroke-miterlimit="10" stroke-linecap="round" stroke-linejoin="round"/>
<path d="M6.50387 84.91L6.16699 91.4104L8.91358 89.561V86.1991L12.162 84.5732L11.3783 81.3247L6.50387 84.91Z" fill="black" stroke="black" stroke-width="1.03126" stroke-miterlimit="10" stroke-linecap="round" stroke-linejoin="round"/>
<path d="M25.9087 96.2165L44.1345 85.6357" stroke="black" stroke-width="1.03126" stroke-miterlimit="10" stroke-linecap="round" stroke-linejoin="round"/>
<path d="M8.91357 86.1992L25.9087 96.2162V104.212" stroke="black" stroke-width="1.03126" stroke-miterlimit="10" stroke-linecap="round" stroke-linejoin="round"/>
<path d="M11.3784 81.325L30.4086 70.8887" stroke="black" stroke-width="1.03126" stroke-miterlimit="10" stroke-linecap="round" stroke-linejoin="round"/>
<path d="M47.0907 82.1946L37.0771 75.4502" stroke="black" stroke-width="1.03126" stroke-miterlimit="10" stroke-linecap="round" stroke-linejoin="round"/>
<path d="M44.0246 90.6543L29.9238 98.6775V104.212" stroke="black" stroke-width="1.03126" stroke-miterlimit="10" stroke-linecap="round" stroke-linejoin="round"/>
<path d="M29.9237 88.8189L26.524 91.4108L14.2485 84.6492L29.4596 76.1069L29.9237 88.8189Z" stroke="black" stroke-width="1.03126" stroke-miterlimit="10" stroke-linecap="round" stroke-linejoin="round"/>
<path d="M30.4087 88.8774L40.8554 82.4904L29.46 76.1069" stroke="black" stroke-width="1.03126" stroke-miterlimit="10" stroke-linecap="round" stroke-linejoin="round"/>
<path d="M10.5083 62.0576C10.5736 62.5767 14.2483 75.4502 14.2483 75.4502" stroke="black" stroke-width="1.03126" stroke-miterlimit="10" stroke-linecap="round" stroke-linejoin="round"/>
<path d="M17.8613 59.2803C17.9473 59.7134 19.5973 83.7555 19.5973 83.7555" stroke="black" stroke-width="1.03126" stroke-miterlimit="10" stroke-linecap="round" stroke-linejoin="round"/>
<path d="M26.7955 69.3452C26.7955 69.6924 25.3208 83.14 25.3208 83.14" stroke="black" stroke-width="1.03126" stroke-miterlimit="10" stroke-linecap="round" stroke-linejoin="round"/>
<path d="M36.2558 66.3955C35.7368 66.8286 28.8789 84.7897 28.8789 84.7897" stroke="black" stroke-width="1.03126" stroke-miterlimit="10" stroke-linecap="round" stroke-linejoin="round"/>
<path d="M6.16699 70.4727C6.66543 70.8198 9.52889 73.4221 9.52889 73.4221" stroke="black" stroke-width="1.03126" stroke-miterlimit="10" stroke-linecap="round" stroke-linejoin="round"/>
<path d="M7.64878 69.3452C7.36346 69.5171 7.64878 73.8587 7.64878 73.8587" stroke="black" stroke-width="1.03126" stroke-miterlimit="10" stroke-linecap="round" stroke-linejoin="round"/>
<path d="M5.71338 72.7311L9.16466 70.4727" stroke="black" stroke-width="1.03126" stroke-miterlimit="10" stroke-linecap="round" stroke-linejoin="round"/>
<path d="M23.3271 57.895L24.1934 64.3129" stroke="black" stroke-width="1.03126" stroke-miterlimit="10" stroke-linecap="round" stroke-linejoin="round"/>
<path d="M21.416 60.4971L25.9089 62.7521" stroke="black" stroke-width="1.03126" stroke-miterlimit="10" stroke-linecap="round" stroke-linejoin="round"/>
<path d="M25.321 59.2803L21.416 62.7522" stroke="black" stroke-width="1.03126" stroke-miterlimit="10" stroke-linecap="round" stroke-linejoin="round"/>
<path d="M33.8389 56.6777V61.0159" stroke="black" stroke-width="1.03126" stroke-miterlimit="10" stroke-linecap="round" stroke-linejoin="round"/>
<path d="M31.9209 58.8467L36.2556 60.4967" stroke="black" stroke-width="1.03126" stroke-miterlimit="10" stroke-linecap="round" stroke-linejoin="round"/>
<path d="M35.5615 56.6777L32.5674 60.4968" stroke="black" stroke-width="1.03126" stroke-miterlimit="10" stroke-linecap="round" stroke-linejoin="round"/>
<path d="M12.3784 48.4346L13.695 50.5177" stroke="black" stroke-width="1.03126" stroke-miterlimit="10" stroke-linecap="round" stroke-linejoin="round"/>
<path d="M12.1621 50.5177L14.2487 47.9155" stroke="black" stroke-width="1.03126" stroke-miterlimit="10" stroke-linecap="round" stroke-linejoin="round"/>
<path d="M37.5105 63.4565L33.9355 66.0416C33.9355 66.0416 30.9724 68.9291 30.883 70.885C30.797 72.841 31.0274 72.6657 31.0274 72.6657C31.0274 72.6657 33.4096 75.0204 35.6474 72.5213C35.6474 72.5213 35.1524 70.1391 37.5071 69.0322V63.4565H37.5105Z" stroke="black" stroke-width="1.03126" stroke-miterlimit="10" stroke-linecap="round" stroke-linejoin="round"/>
<path d="M30.1575 72.0882C30.1575 72.0882 29.4322 74.1232 31.261 74.5289C33.0932 74.9345 34.5438 75.4295 36.8401 73.862C36.8401 73.862 37.1873 72.2051 36.0563 71.9438" stroke="black" stroke-width="1.03126" stroke-miterlimit="10" stroke-linecap="round" stroke-linejoin="round"/>
<path d="M37.5103 69.0356V75.7423" stroke="black" stroke-width="1.03126" stroke-miterlimit="10" stroke-linecap="round" stroke-linejoin="round"/>
<path d="M37.5103 63.4568L53.5601 53.4536L68.7505 62.7521L53.3882 71.9406L38.9781 63.1371" stroke="black" stroke-width="1.03126" stroke-miterlimit="10" stroke-linecap="round" stroke-linejoin="round"/>
<path d="M53.3882 71.9404V80.5102" stroke="black" stroke-width="1.03126" stroke-miterlimit="10" stroke-linecap="round" stroke-linejoin="round"/>
<path d="M68.7505 62.752C68.9121 63.3329 68.7505 70.2595 68.7505 70.2595" stroke="black" stroke-width="1.03126" stroke-miterlimit="10" stroke-linecap="round" stroke-linejoin="round"/>
<path d="M68.7852 73.6729V85.6354" stroke="black" stroke-width="1.03126" stroke-miterlimit="10" stroke-linecap="round" stroke-linejoin="round"/>
<path d="M71.253 70.2598C71.253 70.2598 67.9426 70.0982 68.3654 72.4116C68.7883 74.7251 71.253 73.6767 71.253 73.6767C71.253 73.6767 73.7142 72.2295 71.253 70.2598Z" stroke="black" stroke-width="1.03126" stroke-miterlimit="10" stroke-linecap="round" stroke-linejoin="round"/>
<path d="M68.3276 70.9851C68.0182 70.9851 66.3613 70.2598 66.3613 70.2598L66.5916 72.0851L68.056 72.8723" stroke="black" stroke-width="1.03126" stroke-miterlimit="10" stroke-linecap="round" stroke-linejoin="round"/>
<path d="M67.5166 70.2559V67.3237L65.9766 68.5956V77.3751L67.7091 76.9522V73.1778" stroke="black" stroke-width="1.03126" stroke-miterlimit="10" stroke-linecap="round" stroke-linejoin="round"/>
<path d="M61.7276 104.009L59.1391 102.356V98.7534C59.1391 98.7534 62.5045 96.5465 61.1638 90.6546C59.8232 84.7661 57.4307 82.7242 57.4307 82.7242V76.6123C57.4307 76.6123 72.2808 79.6236 72.1364 96.9384" fill="black"/>
<path d="M61.7276 104.009L59.1391 102.356V98.7534C59.1391 98.7534 62.5045 96.5465 61.1638 90.6546C59.8232 84.7661 57.4307 82.7242 57.4307 82.7242V76.6123C57.4307 76.6123 72.2808 79.6236 72.1364 96.9384" stroke="black" stroke-width="1.03126" stroke-miterlimit="10" stroke-linecap="round" stroke-linejoin="round"/>
<path d="M64.6668 79.6544V69.4312L56.9736 73.6731L62.1677 76.2443C62.1677 76.2443 62.4771 71.0605 62.429 70.6034" stroke="black" stroke-width="1.03126" stroke-miterlimit="10" stroke-linecap="round" stroke-linejoin="round"/>
<path d="M56.9771 82.8167V73.6729" stroke="black" stroke-width="1.03126" stroke-miterlimit="10" stroke-linecap="round" stroke-linejoin="round"/>
<path d="M73.1851 77.7397L91.8783 89.4961" stroke="black" stroke-width="1.03126" stroke-miterlimit="10" stroke-linecap="round" stroke-linejoin="round"/>
<path d="M92.1533 95.2605L68.8228 80.2247L76.6947 75.7422L92.1533 84.9823V97.9108L83.6935 103.521" stroke="black" stroke-width="1.03126" stroke-miterlimit="10" stroke-linecap="round" stroke-linejoin="round"/>
<path d="M70.7822 88.4956C70.8269 88.6125 88.1864 100.015 88.1864 100.015" stroke="black" stroke-width="1.03126" stroke-miterlimit="10" stroke-linecap="round" stroke-linejoin="round"/>
<path d="M83.6937 103.521L72.1367 96.6221" stroke="black" stroke-width="1.03126" stroke-miterlimit="10" stroke-linecap="round" stroke-linejoin="round"/>
<path d="M73.1299 104.191L91.8782 90.8262" stroke="black" stroke-width="1.03126" stroke-miterlimit="10" stroke-linecap="round" stroke-linejoin="round"/>
<path d="M89.5685 83.4355L71.7793 95.9172" stroke="black" stroke-width="1.03126" stroke-miterlimit="10" stroke-linecap="round" stroke-linejoin="round"/>
<path d="M71.0605 89.6747L84.1472 80.5103" stroke="black" stroke-width="1.03126" stroke-miterlimit="10" stroke-linecap="round" stroke-linejoin="round"/>
<path d="M79.4277 77.3752C79.2834 77.2893 68.7852 84.979 68.7852 84.979" stroke="black" stroke-width="1.03126" stroke-miterlimit="10" stroke-linecap="round" stroke-linejoin="round"/>
<path d="M66.8428 61.188V48.9092L83.6935 58.5514V69.0359L95.4808 75.4503" stroke="black" stroke-width="1.03126" stroke-miterlimit="10" stroke-linecap="round" stroke-linejoin="round"/>
<path d="M78.4546 60.4971V76.6156" stroke="black" stroke-width="1.03126" stroke-miterlimit="10" stroke-linecap="round" stroke-linejoin="round"/>
<path d="M72.085 58.0942V66.939" stroke="black" stroke-width="1.03126" stroke-miterlimit="10" stroke-linecap="round" stroke-linejoin="round"/>
<path d="M83.6938 69.0359L113.229 52.2573L125.852 59.5552L110.654 69.0359" stroke="black" stroke-width="1.03126" stroke-miterlimit="10" stroke-linecap="round" stroke-linejoin="round"/>
<path d="M66.8428 48.909L96.8318 32.5945L104.13 36.8021L160.213 7.48682" stroke="black" stroke-width="1.03126" stroke-miterlimit="10" stroke-linecap="round" stroke-linejoin="round"/>
<path d="M125.852 59.5552V88.4957" stroke="black" stroke-width="1.03126" stroke-miterlimit="10" stroke-linecap="round" stroke-linejoin="round"/>
<path d="M115.635 85.646V71.5659L122.544 66.939V89.6748" stroke="black" stroke-width="1.03126" stroke-miterlimit="10" stroke-linecap="round" stroke-linejoin="round"/>
<path d="M115.635 82.8167L122.544 78.8223" stroke="black" stroke-width="1.03126" stroke-miterlimit="10" stroke-linecap="round" stroke-linejoin="round"/>
<path d="M122.544 76.6156L115.635 71.5659L122.544 66.939V76.6156Z" fill="black" stroke="black" stroke-width="1.03126" stroke-miterlimit="10" stroke-linecap="round" stroke-linejoin="round"/>
<path d="M83.6938 58.5512L113.229 41.6179L124.198 47.6542L129.612 44.9455L115.096 37.0632L140.327 23.8837L169.522 38.4176L175.435 35.3376L146.735 20.5562L158.91 14.1143" stroke="black" stroke-width="1.03126" stroke-miterlimit="10" stroke-linecap="round" stroke-linejoin="round"/>
<path d="M88.9736 55.5229V66.0349" stroke="black" stroke-width="1.03126" stroke-miterlimit="10" stroke-linecap="round" stroke-linejoin="round"/>
<path d="M82.9821 54.5295L74.5498 49.3182L84.1474 44.1104L92.4903 48.9091L82.9821 54.5295Z" stroke="black" stroke-width="1.03126" stroke-miterlimit="10" stroke-linecap="round" stroke-linejoin="round"/>
<path d="M84.3916 53.4536V44.7085L92.4904 48.9092L84.3916 53.4536Z" fill="black" stroke="black" stroke-width="1.03126" stroke-miterlimit="10" stroke-linecap="round" stroke-linejoin="round"/>
<path d="M107.368 44.98C107.361 44.9834 107.368 55.5229 107.368 55.5229Z" fill="black"/>
<path d="M107.368 44.98C107.361 44.9834 107.368 55.5229 107.368 55.5229" stroke="black" stroke-width="1.03126" stroke-miterlimit="10" stroke-linecap="round" stroke-linejoin="round"/>
<path d="M113.229 41.6182V52.2573" stroke="black" stroke-width="1.03126" stroke-miterlimit="10" stroke-linecap="round" stroke-linejoin="round"/>
<path d="M124.198 47.6543V58.5513" stroke="black" stroke-width="1.03126" stroke-miterlimit="10" stroke-linecap="round" stroke-linejoin="round"/>
<path d="M129.612 44.9458V86.2649" stroke="black" stroke-width="1.03126" stroke-miterlimit="10" stroke-linecap="round" stroke-linejoin="round"/>
<path d="M136.061 82.1948V36.5409C136.061 36.5409 135.631 32.055 138.206 31.8728C140.78 31.6906 140.533 33.5881 140.533 33.5881V24.4546L140.54 40.3291L136.367 38.1841" fill="black"/>
<path d="M136.061 82.1948V36.5409C136.061 36.5409 135.631 32.055 138.206 31.8728C140.78 31.6906 140.533 33.5881 140.533 33.5881V24.4546L140.54 40.3291L136.367 38.1841" stroke="black" stroke-width="1.03126" stroke-miterlimit="10" stroke-linecap="round" stroke-linejoin="round"/>
<path d="M140.54 40.3291L142.517 41.4669V43.0826L144.706 44.4645V46.747L146.659 47.6545V50.2189L148.608 51.2673V53.598L150.464 54.4058V57.0733L152.558 58.0702V59.8302L151.605 60.8305V67.7778L149.512 66.939V64.8284L147.515 63.4946V61.0677L145.325 59.9746V57.6439L143.517 56.6436V54.0758L141.327 53.103V50.7448L139.519 49.6482V47.2213L137.285 46.0801V43.7494L136.429 43.0826" stroke="black" stroke-width="1.03126" stroke-miterlimit="10" stroke-linecap="round" stroke-linejoin="round"/>
<path d="M137.807 43.6049L142.517 41.4668" stroke="black" stroke-width="1.03126" stroke-miterlimit="10" stroke-linecap="round" stroke-linejoin="round"/>
<path d="M137.285 46.08L142.517 43.605" stroke="black" stroke-width="1.03126" stroke-miterlimit="10" stroke-linecap="round" stroke-linejoin="round"/>
<path d="M144.706 44.4644L139.519 47.2212" stroke="black" stroke-width="1.03126" stroke-miterlimit="10" stroke-linecap="round" stroke-linejoin="round"/>
<path d="M139.519 49.6483L144.706 46.7471" stroke="black" stroke-width="1.03126" stroke-miterlimit="10" stroke-linecap="round" stroke-linejoin="round"/>
<path d="M146.659 47.6543L141.327 50.7446" stroke="black" stroke-width="1.03126" stroke-miterlimit="10" stroke-linecap="round" stroke-linejoin="round"/>
<path d="M141.327 53.1028L146.659 50.2188" stroke="black" stroke-width="1.03126" stroke-miterlimit="10" stroke-linecap="round" stroke-linejoin="round"/>
<path d="M148.608 51.2676L143.517 54.076" stroke="black" stroke-width="1.03126" stroke-miterlimit="10" stroke-linecap="round" stroke-linejoin="round"/>
<path d="M143.517 56.6433L148.608 53.5977" stroke="black" stroke-width="1.03126" stroke-miterlimit="10" stroke-linecap="round" stroke-linejoin="round"/>
<path d="M150.464 54.4058L145.325 57.6439" stroke="black" stroke-width="1.03126" stroke-miterlimit="10" stroke-linecap="round" stroke-linejoin="round"/>
<path d="M145.325 59.9744L150.031 57.2622" stroke="black" stroke-width="1.03126" stroke-miterlimit="10" stroke-linecap="round" stroke-linejoin="round"/>
<path d="M152.557 58.0703L147.515 61.0678" stroke="black" stroke-width="1.03126" stroke-miterlimit="10" stroke-linecap="round" stroke-linejoin="round"/>
<path d="M147.515 63.4945L151.368 61.5454" stroke="black" stroke-width="1.03126" stroke-miterlimit="10" stroke-linecap="round" stroke-linejoin="round"/>
<path d="M151.368 63.209C151.272 63.3534 149.512 64.8281 149.512 64.8281" stroke="black" stroke-width="1.03126" stroke-miterlimit="10" stroke-linecap="round" stroke-linejoin="round"/>
<path d="M149.512 66.9392L151.179 65.6055" stroke="black" stroke-width="1.03126" stroke-miterlimit="10" stroke-linecap="round" stroke-linejoin="round"/>
<path d="M169.521 38.418V48.1977" stroke="black" stroke-width="1.03126" stroke-miterlimit="10" stroke-linecap="round" stroke-linejoin="round"/>
<path d="M175.434 35.3379V48.1977" stroke="black" stroke-width="1.03126" stroke-miterlimit="10" stroke-linecap="round" stroke-linejoin="round"/>
<path d="M218.747 71.9063L241.462 60.9303V42.5361L243.587 41.6664L247.939 43.9283L254.346 39.8823" stroke="black" stroke-width="1.03126" stroke-miterlimit="10" stroke-linecap="round" stroke-linejoin="round"/>
<path d="M219.084 48.1942C219.304 48.1221 234.103 40.8311 234.103 40.8311V42.5361L231.892 43.7014V45.7639L229.905 46.3517L230.201 49.1499L227.698 50.2533L227.846 52.7558L225.932 53.4193L226.079 56.2174L224.092 57.0321L224.388 59.9712L225.344 60.8547V68.6578" stroke="black" stroke-width="1.03126" stroke-miterlimit="10" stroke-linecap="round" stroke-linejoin="round"/>
<path d="M225.588 65.3751L229.256 63.5188V60.2703L231.243 59.4522L231.095 56.6575L233.01 55.9941L232.862 53.4915L235.364 52.3847L235.072 49.5865L237.059 48.9987V46.9362L239.269 45.7708V43.7015L241.462 42.5361" stroke="black" stroke-width="1.03126" stroke-miterlimit="10" stroke-linecap="round" stroke-linejoin="round"/>
<path d="M229.318 59.7513L224.089 57.0322" stroke="black" stroke-width="1.03126" stroke-miterlimit="10" stroke-linecap="round" stroke-linejoin="round"/>
<path d="M226.076 56.2173L230.493 58.3932" stroke="black" stroke-width="1.03126" stroke-miterlimit="10" stroke-linecap="round" stroke-linejoin="round"/>
<path d="M231.085 56.3649L225.928 53.4189" stroke="black" stroke-width="1.03126" stroke-miterlimit="10" stroke-linecap="round" stroke-linejoin="round"/>
<path d="M227.843 52.7559L233.009 55.994" stroke="black" stroke-width="1.03126" stroke-miterlimit="10" stroke-linecap="round" stroke-linejoin="round"/>
<path d="M233.071 53.4189L227.695 50.2529" stroke="black" stroke-width="1.03126" stroke-miterlimit="10" stroke-linecap="round" stroke-linejoin="round"/>
<path d="M230.201 49.1499L234.986 51.8381" stroke="black" stroke-width="1.03126" stroke-miterlimit="10" stroke-linecap="round" stroke-linejoin="round"/>
<path d="M234.986 49.7375L229.905 46.3516" stroke="black" stroke-width="1.03126" stroke-miterlimit="10" stroke-linecap="round" stroke-linejoin="round"/>
<path d="M231.892 45.7637L236.753 48.414" stroke="black" stroke-width="1.03126" stroke-miterlimit="10" stroke-linecap="round" stroke-linejoin="round"/>
<path d="M237.121 46.1315L231.892 43.7012" stroke="black" stroke-width="1.03126" stroke-miterlimit="10" stroke-linecap="round" stroke-linejoin="round"/>
<path d="M234.103 42.5361L239.063 45.3205" stroke="black" stroke-width="1.03126" stroke-miterlimit="10" stroke-linecap="round" stroke-linejoin="round"/>
<path d="M247.938 43.9829V70.4519" stroke="black" stroke-width="1.03126" stroke-miterlimit="10" stroke-linecap="round" stroke-linejoin="round"/>
<path d="M197.27 36.3344L158.91 14.1143V26.8297" stroke="black" stroke-width="1.03126" stroke-miterlimit="10" stroke-linecap="round" stroke-linejoin="round"/>
<path d="M160.213 7.48682L206.035 33.1136" stroke="black" stroke-width="1.03126" stroke-miterlimit="10" stroke-linecap="round" stroke-linejoin="round"/>
<path d="M206.035 33.1139L217.95 27.0913L222.783 30.1816L208.895 37.6067" stroke="black" stroke-width="1.03126" stroke-miterlimit="10" stroke-linecap="round" stroke-linejoin="round"/>
<path d="M222.783 30.1812V39.8819L238.843 32.3502L254.346 39.8819V44.4641V59.0873" stroke="black" stroke-width="1.03126" stroke-miterlimit="10" stroke-linecap="round" stroke-linejoin="round"/>
<path d="M180.336 75.9111L152.08 61.0678L166.033 53.1031L153.255 45.843L159.058 42.5361L172.495 50.219L179.968 46.0802L188.198 50.745" stroke="black" stroke-width="1.03126" stroke-miterlimit="10" stroke-linecap="round" stroke-linejoin="round"/>
<path d="M152.08 61.0679V73.5324" stroke="black" stroke-width="1.03126" stroke-miterlimit="10" stroke-linecap="round" stroke-linejoin="round"/>
<path d="M188.514 74.6321L163.062 61.0676L172.523 55.7085L188.514 63.8279" stroke="black" stroke-width="1.03126" stroke-miterlimit="10" stroke-linecap="round" stroke-linejoin="round"/>
<path d="M172.829 56.3203V66.272" stroke="black" stroke-width="1.03126" stroke-miterlimit="10" stroke-linecap="round" stroke-linejoin="round"/>
<path d="M153.255 45.8428V59.5551" stroke="black" stroke-width="1.03126" stroke-miterlimit="10" stroke-linecap="round" stroke-linejoin="round"/>
<path d="M219.084 57.0322L224.384 59.9713L225.34 60.8548L218.427 64.3095" stroke="black" stroke-width="1.03126" stroke-miterlimit="10" stroke-linecap="round" stroke-linejoin="round"/>
<path d="M119.973 91.7787L152.557 74.0239C152.557 74.0239 159.735 65.5641 178.614 76.6123" stroke="black" stroke-width="1.03126" stroke-miterlimit="10" stroke-linecap="round" stroke-linejoin="round"/>
<path d="M170.361 95.2609C165.789 91.6549 160.306 94.2571 160.306 94.2571L139.519 104.216" stroke="black" stroke-width="1.03126" stroke-miterlimit="10" stroke-linecap="round" stroke-linejoin="round"/>
<path d="M171.571 80.5516L184.063 74.1372L201.635 84.7145L189.477 91.3764L171.571 80.5516Z" stroke="black" stroke-width="1.03126" stroke-miterlimit="10" stroke-linecap="round" stroke-linejoin="round"/>
<path d="M189.827 77.6088C189.679 77.5194 178.617 84.2157 178.617 84.2157L182.546 87.1858L193.842 80.0219L197.785 82.3938L186.018 89.2826" stroke="black" stroke-width="1.03126" stroke-miterlimit="10" stroke-linecap="round" stroke-linejoin="round"/>
<path d="M171.571 80.5513V101.537" stroke="black" stroke-width="1.03126" stroke-miterlimit="10" stroke-linecap="round" stroke-linejoin="round"/>
<path d="M192.058 92.2114V95.9583" stroke="black" stroke-width="1.03126" stroke-miterlimit="10" stroke-linecap="round" stroke-linejoin="round"/>
<path d="M194.722 91.376V94.291" stroke="black" stroke-width="1.03126" stroke-miterlimit="10" stroke-linecap="round" stroke-linejoin="round"/>
<path d="M196.805 89.7124V93.7102" stroke="black" stroke-width="1.03126" stroke-miterlimit="10" stroke-linecap="round" stroke-linejoin="round"/>
<path d="M199.054 89.2861V92.2115" stroke="black" stroke-width="1.03126" stroke-miterlimit="10" stroke-linecap="round" stroke-linejoin="round"/>
<path d="M175.788 100.496V92.71L184.812 97.6222V104.078" stroke="black" stroke-width="1.03126" stroke-miterlimit="10" stroke-linecap="round" stroke-linejoin="round"/>
<path d="M179.649 95.3745C179.649 95.9589 179.649 99.4549 179.649 99.4549L169.969 104.212" stroke="black" stroke-width="1.03126" stroke-miterlimit="10" stroke-linecap="round" stroke-linejoin="round"/>
<path d="M171.182 94.6177L162.53 99.7155V104.009" stroke="black" stroke-width="1.03126" stroke-miterlimit="10" stroke-linecap="round" stroke-linejoin="round"/>
<path d="M169.969 104.212L162.53 99.7158" stroke="black" stroke-width="1.03126" stroke-miterlimit="10" stroke-linecap="round" stroke-linejoin="round"/>
<path d="M179.649 99.4541L184.204 102.383" stroke="black" stroke-width="1.03126" stroke-miterlimit="10" stroke-linecap="round" stroke-linejoin="round"/>
<path d="M188.514 75.9111C188.514 75.9111 188.377 42.8214 188.514 42.5361L206.74 53.4193L218.428 45.843V79.548" stroke="black" stroke-width="1.03126" stroke-miterlimit="10" stroke-linecap="round" stroke-linejoin="round"/>
<path d="M188.514 48.9092L206.62 59.2252L218.428 51.838" stroke="black" stroke-width="1.03126" stroke-miterlimit="10" stroke-linecap="round" stroke-linejoin="round"/>
<path d="M190.253 47.0872V45.3203L195.87 48.9091V50.786L190.253 47.0872Z" stroke="black" stroke-width="1.03126" stroke-miterlimit="10" stroke-linecap="round" stroke-linejoin="round"/>
<path d="M194.083 38.4177V42.8109L205.633 50.2531L213.543 45.3203V40.4493L201.879 33.3164L194.083 38.4177Z" stroke="black" stroke-width="1.03126" stroke-miterlimit="10" stroke-linecap="round" stroke-linejoin="round"/>
<path d="M194.083 38.418L205.568 44.9149L213.543 40.4495" stroke="black" stroke-width="1.03126" stroke-miterlimit="10" stroke-linecap="round" stroke-linejoin="round"/>
<path d="M205.567 44.9146L205.633 50.253" stroke="black" stroke-width="1.03126" stroke-miterlimit="10" stroke-linecap="round" stroke-linejoin="round"/>
<path d="M218.427 45.8431L213.928 43.1309" stroke="black" stroke-width="1.03126" stroke-miterlimit="10" stroke-linecap="round" stroke-linejoin="round"/>
<path d="M188.514 42.5361L193.75 39.8823" stroke="black" stroke-width="1.03126" stroke-miterlimit="10" stroke-linecap="round" stroke-linejoin="round"/>
<path d="M209.497 58.3931V84.7142" stroke="black" stroke-width="1.03126" stroke-miterlimit="10" stroke-linecap="round" stroke-linejoin="round"/>
<path d="M211.191 56.3652V83.5836" stroke="black" stroke-width="1.03126" stroke-miterlimit="10" stroke-linecap="round" stroke-linejoin="round"/>
<path d="M213.542 54.8936V82.3182" stroke="black" stroke-width="1.03126" stroke-miterlimit="10" stroke-linecap="round" stroke-linejoin="round"/>
<path d="M214.863 54.0654V81.906" stroke="black" stroke-width="1.03126" stroke-miterlimit="10" stroke-linecap="round" stroke-linejoin="round"/>
<path d="M216.176 53.2437V80.5514" stroke="black" stroke-width="1.03126" stroke-miterlimit="10" stroke-linecap="round" stroke-linejoin="round"/>
<path d="M191.295 50.4937V78.1211" stroke="black" stroke-width="1.03126" stroke-miterlimit="10" stroke-linecap="round" stroke-linejoin="round"/>
<path d="M194.083 52.7559V80.0223" stroke="black" stroke-width="1.03126" stroke-miterlimit="10" stroke-linecap="round" stroke-linejoin="round"/>
<path d="M196.434 53.4189V81.3523" stroke="black" stroke-width="1.03126" stroke-miterlimit="10" stroke-linecap="round" stroke-linejoin="round"/>
<path d="M199.054 54.9111V82.7586" stroke="black" stroke-width="1.03126" stroke-miterlimit="10" stroke-linecap="round" stroke-linejoin="round"/>
<path d="M201.635 57.0322V84.7146V94.2916L189.477 100.706" stroke="black" stroke-width="1.03126" stroke-miterlimit="10" stroke-linecap="round" stroke-linejoin="round"/>
<path d="M203.814 58.3931V96.6974" stroke="black" stroke-width="1.03126" stroke-miterlimit="10" stroke-linecap="round" stroke-linejoin="round"/>
<path d="M225.34 77.8082C225.34 77.8082 224.185 77.1895 219.524 79.5476C214.863 81.9057 206.846 87.0242 206.846 87.0242L206.74 53.4189" stroke="black" stroke-width="1.03126" stroke-miterlimit="10" stroke-linecap="round" stroke-linejoin="round"/>
<path d="M204.746 97.3954C204.746 97.3954 204.09 88.6572 206.846 87.0244" stroke="black" stroke-width="1.03126" stroke-miterlimit="10" stroke-linecap="round" stroke-linejoin="round"/>
<path d="M227.592 80.5516C227.592 80.5516 227.547 78.2932 222.786 80.5516C218.025 82.8101 211.556 85.6942 208.806 88.6539C207.176 90.407 207.169 91.7133 207.169 98.0899" stroke="black" stroke-width="1.03126" stroke-miterlimit="10" stroke-linecap="round" stroke-linejoin="round"/>
<path d="M227.843 93.7101L222.137 96.6973L217.111 93.3457" stroke="black" stroke-width="1.03126" stroke-miterlimit="10" stroke-linecap="round" stroke-linejoin="round"/>
<path d="M227.843 93.7104V101.541L222.243 105.003L217.111 101.541V93.346L222.783 90.2832L227.843 93.7104Z" stroke="black" stroke-width="1.03126" stroke-miterlimit="10" stroke-linecap="round" stroke-linejoin="round"/>
<path d="M222.136 96.6973V104.377" stroke="black" stroke-width="1.03126" stroke-miterlimit="10" stroke-linecap="round" stroke-linejoin="round"/>
<path d="M230.978 101.964L228.19 99.1763" stroke="black" stroke-width="1.03126" stroke-miterlimit="10" stroke-linecap="round" stroke-linejoin="round"/>
<path d="M216.774 99.9907L213.292 101.964L216.774 104.264" stroke="black" stroke-width="1.03126" stroke-miterlimit="10" stroke-linecap="round" stroke-linejoin="round"/>
<path d="M319.202 97.5401L314.221 94.7866V60.0676L301.966 54.0312L293.094 59.8407V56.0319" stroke="black" stroke-width="1.03126" stroke-miterlimit="10" stroke-linecap="round" stroke-linejoin="round"/>
<path d="M298.855 101.882L314.221 94.7866" stroke="black" stroke-width="1.03126" stroke-miterlimit="10" stroke-linecap="round" stroke-linejoin="round"/>
<path d="M325.221 99.9907V78.4718L340.59 87.0415L340.635 104.377H344.038V84.8277L336.493 76.1411H328.583L325.524 78.1727L332.67 78.2586L336.056 76.3783" stroke="black" stroke-width="1.03126" stroke-miterlimit="10" stroke-linecap="round" stroke-linejoin="round"/>
<path d="M230.978 104.264V101.964L228.19 104.264" stroke="black" stroke-width="1.03126" stroke-miterlimit="10" stroke-linecap="round" stroke-linejoin="round"/>
<path d="M368.5 97.54L374.485 106.227" stroke="black" stroke-width="1.03126" stroke-miterlimit="10" stroke-linecap="round" stroke-linejoin="round"/>
<path d="M333.045 95.8862L336.754 98.0897" stroke="black" stroke-width="1.03126" stroke-miterlimit="10" stroke-linecap="round" stroke-linejoin="round"/>
<path d="M327.885 98.0897V82.5039L333.884 86.1443" stroke="black" stroke-width="1.03126" stroke-miterlimit="10" stroke-linecap="round" stroke-linejoin="round"/>
<path d="M316.098 78.2588V81.6448" stroke="black" stroke-width="1.03126" stroke-miterlimit="10" stroke-linecap="round" stroke-linejoin="round"/>
<path d="M316.098 86.3745V89.7055" stroke="black" stroke-width="1.03126" stroke-miterlimit="10" stroke-linecap="round" stroke-linejoin="round"/>
<path d="M344.038 84.8279L340.59 87.0417L332.67 78.2588" stroke="black" stroke-width="1.03126" stroke-miterlimit="10" stroke-linecap="round" stroke-linejoin="round"/>
<path d="M327.119 77.1143L321.388 74.1477L329.676 65.0107H332.67" stroke="black" stroke-width="1.03126" stroke-miterlimit="10" stroke-linecap="round" stroke-linejoin="round"/>
<path d="M329.676 65.0107L332.67 67.1351" stroke="black" stroke-width="1.03126" stroke-miterlimit="10" stroke-linecap="round" stroke-linejoin="round"/>
<path d="M333.104 75.4981V50.2529L334.932 51.2842V54.9348L339.147 57.0317V54.0308L341.594 55.4058L344.086 53.9895V56.437L348.552 54.0308V76.141L342.612 83.1845" stroke="black" stroke-width="1.03126" stroke-miterlimit="10" stroke-linecap="round" stroke-linejoin="round"/>
<path d="M341.594 55.4062V81.6449" stroke="black" stroke-width="1.03126" stroke-miterlimit="10" stroke-linecap="round" stroke-linejoin="round"/>
<path d="M333.409 61.5522C334.293 61.6107 341.597 66.0726 341.597 66.0726L348.555 62.611" stroke="black" stroke-width="1.03126" stroke-miterlimit="10" stroke-linecap="round" stroke-linejoin="round"/>
<path d="M333.409 72.9546C333.88 72.9787 341.597 77.114 341.597 77.114L348.555 73.508" stroke="black" stroke-width="1.03126" stroke-miterlimit="10" stroke-linecap="round" stroke-linejoin="round"/>
<path d="M334.932 51.2845L337.473 50.4938L335.176 48.8301L333.104 49.7376" stroke="black" stroke-width="1.03126" stroke-miterlimit="10" stroke-linecap="round" stroke-linejoin="round"/>
<path d="M339.146 54.0308L341.594 52.4805L344.086 53.9895" stroke="black" stroke-width="1.03126" stroke-miterlimit="10" stroke-linecap="round" stroke-linejoin="round"/>
<path d="M332.67 59.373L326.163 55.7808L321.388 58.3933V74.1475" stroke="black" stroke-width="1.03126" stroke-miterlimit="10" stroke-linecap="round" stroke-linejoin="round"/>
<path d="M321.388 58.3931L332.67 65.0103" stroke="black" stroke-width="1.03126" stroke-miterlimit="10" stroke-linecap="round" stroke-linejoin="round"/>
<path d="M348.947 71.6309L368.5 82.9781L352.619 92.2663" stroke="black" stroke-width="1.03126" stroke-miterlimit="10" stroke-linecap="round" stroke-linejoin="round"/>
<path d="M368.5 97.5399V82.9785L360.459 83.1848L352.618 92.2667V104.724" stroke="black" stroke-width="1.03126" stroke-miterlimit="10" stroke-linecap="round" stroke-linejoin="round"/>
<path d="M360.459 83.1846L348.552 76.1411" stroke="black" stroke-width="1.03126" stroke-miterlimit="10" stroke-linecap="round" stroke-linejoin="round"/>
<path d="M362.295 100.857L355.121 96.9897V104.212" stroke="black" stroke-width="1.03126" stroke-miterlimit="10" stroke-linecap="round" stroke-linejoin="round"/>
<path d="M368.499 90.5957C368.194 90.5957 360.463 90.5957 360.463 90.5957L355.124 96.9861" stroke="black" stroke-width="1.03126" stroke-miterlimit="10" stroke-linecap="round" stroke-linejoin="round"/>
<path d="M358.016 98.0898L362.852 92.2666" stroke="black" stroke-width="1.03126" stroke-miterlimit="10" stroke-linecap="round" stroke-linejoin="round"/>
<path d="M360.459 99.3274L365.522 93.793" stroke="black" stroke-width="1.03126" stroke-miterlimit="10" stroke-linecap="round" stroke-linejoin="round"/>
<path d="M360.459 90.5957L367.915 94.9339L362.295 100.857V104.212" stroke="black" stroke-width="1.03126" stroke-miterlimit="10" stroke-linecap="round" stroke-linejoin="round"/>
<path d="M345.888 90.9844V94.3222" stroke="black" stroke-width="1.03126" stroke-miterlimit="10" stroke-linecap="round" stroke-linejoin="round"/>
<path d="M348.226 92.043V95.2949" stroke="black" stroke-width="1.03126" stroke-miterlimit="10" stroke-linecap="round" stroke-linejoin="round"/>
<path d="M350.449 93.6689V96.6974" stroke="black" stroke-width="1.03126" stroke-miterlimit="10" stroke-linecap="round" stroke-linejoin="round"/>
<path d="M345.888 98.8286V102.276" stroke="black" stroke-width="1.03126" stroke-miterlimit="10" stroke-linecap="round" stroke-linejoin="round"/>
<path d="M347.946 99.9941V103.222" stroke="black" stroke-width="1.03126" stroke-miterlimit="10" stroke-linecap="round" stroke-linejoin="round"/>
<path d="M350.006 101.386V104.212" stroke="black" stroke-width="1.03126" stroke-miterlimit="10" stroke-linecap="round" stroke-linejoin="round"/>
<path d="M231.896 82.7583L228.689 79.9154L218.293 85.9277L249.565 104.102L257.433 100.248L262.981 97.7906L274.023 90.5236V73.0472C274.023 73.0472 276.24 64.3503 279.705 64.5634C283.17 64.7766 282.699 70.9229 282.699 70.9229L282.225 85.8142L287.886 82.6242" stroke="black" stroke-width="1.03126" stroke-miterlimit="10" stroke-linecap="round" stroke-linejoin="round"/>
<path d="M231.896 91.2386V78.5129L251.273 68.7778" stroke="black" stroke-width="1.03126" stroke-miterlimit="10" stroke-linecap="round" stroke-linejoin="round"/>
<path d="M254.25 56.0317V60.0674L263.184 65.0759L272.29 60.5555V55.3442L263.27 59.8405L254.25 56.0317Z" stroke="black" stroke-width="1.03126" stroke-miterlimit="10" stroke-linecap="round" stroke-linejoin="round"/>
<path d="M263.016 64.5635V59.8403" stroke="black" stroke-width="1.03126" stroke-miterlimit="10" stroke-linecap="round" stroke-linejoin="round"/>
<path d="M254.25 55.3442L263.016 48.2319L272.29 55.3442" stroke="black" stroke-width="1.03126" stroke-miterlimit="10" stroke-linecap="round" stroke-linejoin="round"/>
<path d="M263.016 48.2319V59.1598" stroke="black" stroke-width="1.03126" stroke-miterlimit="10" stroke-linecap="round" stroke-linejoin="round"/>
<path d="M251.273 61.3565L254.25 60.0674" stroke="black" stroke-width="1.03126" stroke-miterlimit="10" stroke-linecap="round" stroke-linejoin="round"/>
<path d="M267.398 51.0781L270.753 49.3696L282.084 57.7022" stroke="black" stroke-width="1.03126" stroke-miterlimit="10" stroke-linecap="round" stroke-linejoin="round"/>
<path d="M231.896 78.5128L251.273 89.9048V61.3561L262.981 68.7777L282.083 57.702V61.3561L293.094 56.0314L281.623 47.7744L274.043 51.7895" stroke="black" stroke-width="1.03126" stroke-miterlimit="10" stroke-linecap="round" stroke-linejoin="round"/>
<path d="M286.804 95.9309L274.026 104.208L262.981 97.7906V68.7778" stroke="black" stroke-width="1.03126" stroke-miterlimit="10" stroke-linecap="round" stroke-linejoin="round"/>
<path d="M282.232 85.8143L274.483 81.7442V79.4961L282.232 83.6143V85.8143Z" fill="black" stroke="black" stroke-width="1.03126" stroke-miterlimit="10" stroke-linecap="round" stroke-linejoin="round"/>
<path d="M282.232 81.679L274.026 77.2515" stroke="black" stroke-width="1.03126" stroke-miterlimit="10" stroke-linecap="round" stroke-linejoin="round"/>
<path d="M282.232 79.4961L274.026 75.4433V73.0507L275.044 72.1982L282.232 76.1273V79.4961Z" fill="black" stroke="black" stroke-width="1.03126" stroke-miterlimit="10" stroke-linecap="round" stroke-linejoin="round"/>
<path d="M282.585 74.632L275.438 70.4519L275.978 69.2041L282.585 73.0094V74.632Z" fill="black" stroke="black" stroke-width="1.03126" stroke-miterlimit="10" stroke-linecap="round" stroke-linejoin="round"/>
<path d="M282.702 70.923L276.353 67.2104" stroke="black" stroke-width="1.03126" stroke-miterlimit="10" stroke-linecap="round" stroke-linejoin="round"/>
<path d="M282.702 68.5166L277.608 65.5329C277.608 65.5329 279.595 64.3813 280.657 65.0757C281.723 65.7701 282.72 67.8429 282.702 68.5166Z" fill="black" stroke="black" stroke-width="1.03126" stroke-miterlimit="10" stroke-linecap="round" stroke-linejoin="round"/>
<path d="M290.581 99.8018C290.581 99.8018 286.425 100.651 286.804 97.4403C287.182 94.2296 289.732 63.0581 289.732 63.0581C289.732 63.0581 291.623 59.7409 295.023 59.8406C298.422 59.9403 300.313 62.5872 300.313 62.5872L302.393 96.8662C302.393 96.8662 303.527 100.005 298.615 99.905" stroke="black" stroke-width="1.03126" stroke-miterlimit="10" stroke-linecap="round" stroke-linejoin="round"/>
<path d="M293.094 90.524C290.32 90.5962 287.622 88.3618 287.622 88.3618" stroke="black" stroke-width="1.03126" stroke-miterlimit="10" stroke-linecap="round" stroke-linejoin="round"/>
<path d="M296.721 91.239C296.721 91.239 300.598 91.2493 301.966 89.9053" stroke="black" stroke-width="1.03126" stroke-miterlimit="10" stroke-linecap="round" stroke-linejoin="round"/>
<path d="M288.711 75.4019C288.711 75.4019 296.342 80.0013 301.114 75.4019" stroke="black" stroke-width="1.03126" stroke-miterlimit="10" stroke-linecap="round" stroke-linejoin="round"/>
<path d="M289.529 65.4985C289.529 65.4985 294.847 68.032 300.461 65.4985" stroke="black" stroke-width="1.03126" stroke-miterlimit="10" stroke-linecap="round" stroke-linejoin="round"/>
<path d="M292.667 54.9456L302.468 49.2256L319.246 57.5753V103.518L333.045 95.8866V85.6771L337.183 87.9872V104.377" stroke="black" stroke-width="1.03126" stroke-miterlimit="10" stroke-linecap="round" stroke-linejoin="round"/>
<path d="M301.516 64.3503C301.475 64.5118 301.516 69.0837 301.516 69.0837L306.861 71.1428V65.5293C306.861 65.5293 306.971 61.6209 304.689 61.119C302.406 60.6206 301.849 63.0131 301.516 64.3503Z" fill="black" stroke="black" stroke-width="1.03126" stroke-miterlimit="10" stroke-linecap="round" stroke-linejoin="round"/>
<path d="M289.529 104.102L294.912 85.6943L299.343 104.467" stroke="black" stroke-width="1.03126" stroke-miterlimit="10" stroke-linecap="round" stroke-linejoin="round"/>
<path d="M352.618 92.2665L344.038 87.0415" stroke="black" stroke-width="1.03126" stroke-miterlimit="10" stroke-linecap="round" stroke-linejoin="round"/>
<path d="M362.853 92.2666L368.5 92.655" stroke="black" stroke-width="1.03126" stroke-miterlimit="10" stroke-linecap="round" stroke-linejoin="round"/>
<path d="M348.551 54.0312L339.146 49.2256L337.472 50.494V54.375L334.932 54.9353" stroke="black" stroke-width="1.03126" stroke-miterlimit="10" stroke-linecap="round" stroke-linejoin="round"/>
</g>
<defs>
<clipPath id="clip0_4314_22289">
<rect width="375" height="105" fill="white"/>
</clipPath>
</defs>
</svg>
