<?xml version="1.0" encoding="UTF-8"?>
<svg width="267" height="145" viewBox="0 0 267 145" fill="none" xmlns="http://www.w3.org/2000/svg">
<path d="M152.04 8.72879C152.04 10.9525 152.04 13.1763 152.04 15.4C152.04 16.3912 152.888 17.3569 153.883 17.3061C154.879 17.2552 155.727 16.4674 155.727 15.4C155.727 13.1763 155.727 10.9525 155.727 8.72879C155.727 7.73763 154.879 6.77189 153.883 6.82272C152.888 6.86084 152.04 7.64868 152.04 8.72879Z" fill="#020202"/>
<path d="M172.244 12.2361C172.858 10.3681 173.473 8.50019 174.087 6.63225C174.394 5.69192 173.731 4.51016 172.797 4.28143C171.777 4.04 170.867 4.59911 170.523 5.61568C169.909 7.48362 169.294 9.35156 168.68 11.2195C168.373 12.1598 169.036 13.3416 169.97 13.5703C170.99 13.799 171.9 13.2399 172.244 12.2361Z" fill="#020202"/>
<path d="M183.12 23.9518C184.73 22.6303 186.339 21.3214 187.937 19.9999C188.281 19.7203 188.478 19.085 188.478 18.6529C188.478 18.1828 188.281 17.6237 187.937 17.306C187.581 16.9756 187.126 16.7215 186.634 16.7469C186.475 16.7723 186.303 16.7977 186.143 16.8104C185.836 16.8994 185.565 17.0645 185.332 17.306C183.722 18.6275 182.112 19.9364 180.514 21.2579C180.17 21.5374 179.974 22.1728 179.974 22.6048C179.974 23.075 180.17 23.6341 180.514 23.9518C180.871 24.2822 181.325 24.5363 181.817 24.5109C181.977 24.4855 182.149 24.4601 182.309 24.4474C182.616 24.3457 182.898 24.1805 183.12 23.9518Z" fill="#020202"/>
<path d="M135.573 17.7633C135.782 18.0301 135.979 18.297 136.188 18.5638C136.089 18.4367 135.991 18.3097 135.905 18.1826C137.158 19.8726 138.301 21.6389 139.321 23.4815C139.801 24.3455 141.017 24.714 141.841 24.1676C142.689 23.6085 143.02 22.4903 142.504 21.5627C141.238 19.2754 139.788 17.1279 138.191 15.0694C137.908 14.7136 137.306 14.5103 136.888 14.5103C136.433 14.5103 135.893 14.7136 135.585 15.0694C135.266 15.4379 135.02 15.908 135.045 16.4163C135.057 16.95 135.254 17.3439 135.573 17.7633Z" fill="#020202"/>
<path d="M110.761 66.6474L88.6895 54.1944L167.955 26.188L136.851 100.88L116.783 71.8319L110.761 92.5826V66.6474Z" stroke="#020202" stroke-width="3" stroke-miterlimit="10" stroke-linecap="round" stroke-linejoin="round"/>
<path d="M110.761 92.5822L121.932 79.2778" stroke="#020202" stroke-width="3" stroke-miterlimit="10" stroke-linecap="round" stroke-linejoin="round"/>
<path d="M110.761 66.6474L167.955 26.188L116.782 71.8319" stroke="#020202" stroke-width="3" stroke-miterlimit="10" stroke-linecap="round" stroke-linejoin="round"/>
<path d="M180.822 40.6617C182.628 40.8523 184.435 41.0429 186.241 41.2462C186.684 41.297 187.249 41.0047 187.544 40.6871C187.863 40.3567 188.109 39.8103 188.085 39.3401C188.06 38.8445 187.913 38.3363 187.544 37.9932C187.163 37.6374 186.757 37.4849 186.241 37.4341C184.435 37.2435 182.628 37.0528 180.822 36.8495C180.379 36.7987 179.814 37.091 179.519 37.4086C179.199 37.739 178.954 38.2854 178.978 38.7556C179.003 39.2512 179.15 39.7595 179.519 40.1025C179.9 40.4711 180.305 40.6108 180.822 40.6617Z" fill="#020202"/>
<path d="M167.66 55.9355C169.749 57.2189 171.851 58.5023 173.94 59.7731C174.775 60.2813 176.004 60.0018 176.459 59.0869C176.926 58.172 176.68 57.0156 175.795 56.4819C173.706 55.1985 171.605 53.9151 169.516 52.6444C168.68 52.1361 167.451 52.4157 166.996 53.3306C166.529 54.2455 166.775 55.4018 167.66 55.9355Z" fill="#020202"/>
<path d="M109.83 23.8148C109.83 23.8148 75.3298 0.02303 40.1949 2.13241C-2.03085 4.67383 -4.83156 42.0065 10.5791 63.1257C30.0349 89.7883 85.2226 92.3528 85.2226 92.3528" stroke="#020202" stroke-width="3" stroke-miterlimit="10" stroke-linecap="round" stroke-linejoin="round" stroke-dasharray="7 7"/>
<path d="M155.908 98.2319C155.908 98.2319 236.081 88.4086 255.362 100.595C277.483 114.572 260.856 158.336 212.35 137.445C182.856 124.738 168.109 76.4512 168.109 76.4512" stroke="#020202" stroke-width="3" stroke-miterlimit="10" stroke-linecap="round" stroke-linejoin="round" stroke-dasharray="7 7"/>
</svg>
