<?xml version="1.0" encoding="UTF-8"?>
<svg width="113" height="92" viewBox="0 0 113 92" fill="none" xmlns="http://www.w3.org/2000/svg">
<g clip-path="url(#clip0_1539_14862)">
<path d="M33.071 19.991L26.0304 16.4707L18.9899 18.2308L16.3497 23.5113L18.1098 29.6717L2.26855 33.6321L3.14862 45.513L6.6689 44.6329L11.9493 48.1532V52.9936L5.3488 55.6338L6.6689 75.4354L20.75 74.1152L23.3902 69.7149L24.2703 66.1946L31.3108 67.5147L34.3911 73.2352L48.4722 70.595L47.1521 52.9936L52.8725 51.2334L55.5127 45.513L51.1124 39.7925H44.5119V27.0315H34.3911L33.071 19.991Z" fill="#FFCD02"/>
<path d="M7.92698 69.6378C7.57044 64.9913 7.2139 60.3563 6.84586 55.7097C6.27079 56.2848 5.69573 56.8599 5.12067 57.4349C7.61644 57.2279 10.3077 56.9059 12.1479 55.0082C13.7236 53.398 14.2067 50.9367 13.6891 48.786C12.5045 43.8749 6.47782 42.3223 2.52138 44.9791C3.36097 45.3241 4.21207 45.6691 5.05166 46.0142C4.61461 43.7829 4.31558 41.5287 4.16606 39.2629C4.09705 38.2393 4.06255 37.2157 4.06255 36.1806C4.06255 35.8816 3.95904 34.95 4.08555 34.8119C4.21207 34.6739 5.16667 34.5589 5.4427 34.4899C9.67517 33.3973 13.9421 32.4887 18.2436 31.7411C18.9567 31.6146 19.5318 30.775 19.5088 30.0734C19.4627 28.6358 19.1292 27.2671 18.7727 25.887C18.4276 24.5413 18.0251 23.0921 18.5771 21.735C19.5088 19.4577 22.062 18.0201 24.4198 17.7671C29.3193 17.238 33.5288 21.666 32.7007 26.5655C32.4707 27.9342 33.4598 28.9233 34.8284 28.6933C36.6341 28.3827 38.4628 28.1412 40.2915 27.9802C40.5906 27.9572 42.9138 27.9802 42.9943 27.7962C42.5113 27.0141 42.3158 26.8991 42.4078 27.4396C42.4308 27.7157 42.4423 27.9917 42.4653 28.2677C42.4998 28.7278 42.5228 29.1878 42.5573 29.6479C42.8103 33.4203 43.0748 37.1927 43.3279 40.9651C43.4314 42.5178 45.1106 43.1619 46.2722 42.1843C48.9865 39.8955 53.0349 41.8507 53.495 45.1861C53.978 48.7285 50.6427 51.5348 47.2153 50.9827C45.8582 50.7642 44.846 51.7303 45.0876 53.1105C46.1342 58.9531 46.4217 64.8763 46.0192 70.7994C46.4447 70.2473 46.8588 69.6953 47.2843 69.1317C43.1439 69.9368 38.9689 70.5349 34.7709 70.9374C35.323 71.363 35.8751 71.777 36.4386 72.2026C35.3575 67.7861 31.3321 64.4507 26.7891 64.2437C24.5923 64.1402 22.4991 64.9568 21.5445 67.0385C20.6819 68.9017 20.9924 71.0179 20.3713 72.9386C20.7739 72.5361 21.1764 72.1335 21.579 71.731C18.6692 72.4786 15.7133 73.0191 12.723 73.2607C11.2853 73.3757 9.84769 73.4447 8.39853 73.4447C8.22601 73.4447 7.09889 73.5827 7.89247 73.5712C8.19151 73.8012 8.28352 73.7552 8.1685 73.4332C8.1455 73.2607 8.1225 73.0767 8.09949 72.9041C7.99598 72.1105 7.90397 71.317 7.80046 70.5234C7.52443 68.3496 4.07405 68.3266 4.35008 70.5234C4.4881 71.5815 4.61461 72.6396 4.75263 73.6977C4.86764 74.5718 4.92515 75.5149 5.60372 76.182C6.85736 77.4126 9.53715 76.9066 11.1128 76.8146C13.1601 76.7111 15.1958 76.481 17.22 76.159C18.2896 75.9865 19.3477 75.791 20.4058 75.5609C21.3144 75.3654 22.5796 75.2849 23.2697 74.6063C25.0294 72.8811 22.9936 67.8896 26.191 67.6826C29.4573 67.4755 32.3787 70.0633 33.1263 73.1227C33.2873 73.8012 34.0579 74.4568 34.7939 74.3878C39.3024 73.9623 43.7879 73.3182 48.2274 72.4556C48.998 72.3061 49.4465 71.5125 49.4926 70.7879C49.9181 64.5542 49.5386 58.332 48.4344 52.1789C47.7214 52.8919 47.0198 53.5935 46.3067 54.3066C52.3219 55.2612 57.9575 50.5572 56.8304 44.266C55.7492 38.2048 48.4344 35.8701 43.8454 39.746C44.823 40.1485 45.8121 40.5626 46.7898 40.9651C46.6287 38.5729 46.4677 36.1806 46.2952 33.7883C46.1342 31.4306 46.1917 28.9003 45.7661 26.577C45.3176 24.1043 43.0633 24.3113 41.0966 24.4608C38.6929 24.6448 36.2891 24.9554 33.9083 25.3694C34.6214 26.0825 35.323 26.7841 36.0361 27.4971C37.1977 20.6769 31.9991 13.9026 24.8338 14.3052C21.51 14.4892 18.2896 16.0304 16.3459 18.7677C15.2418 20.3203 14.7357 22.149 14.9082 24.0583C15.1038 26.117 16.0009 28.0377 16.0699 30.1079C16.4954 29.5559 16.9095 29.0038 17.335 28.4402C14.5862 28.9118 11.8489 29.4523 9.13461 30.0619C7.86947 30.3494 6.60433 30.6485 5.33919 30.9705C4.18906 31.258 2.83192 31.4421 1.84281 32.1321C-0.0203983 33.4433 0.589169 36.7787 0.69268 38.7224C0.842197 41.4827 1.19874 44.2315 1.72779 46.9573C1.93482 48.0154 3.38398 48.579 4.25807 47.9924C6.3398 46.5892 9.74418 46.8883 10.3652 49.7406C11.0898 53.0875 7.68545 53.812 5.13217 54.0191C4.25807 54.0881 3.32647 54.7551 3.40698 55.7442C3.76352 60.3908 4.12006 65.0258 4.4881 69.6723C4.64912 71.8345 8.09949 71.8575 7.92698 69.6378Z" fill="black"/>
<path d="M44.1329 28.141C50.2401 27.4625 56.3357 26.7839 62.4429 26.1168C61.8678 25.5417 61.2928 24.9667 60.7177 24.3916C60.3382 27.1979 60.1196 30.2113 61.6838 32.7185C63.2365 35.2028 65.8818 35.9964 68.6766 35.9274C71.4369 35.8584 73.6221 34.7888 74.4387 32.0055C75.2668 29.1992 75.2553 25.9213 75.3703 23.0115C74.7953 23.5865 74.2202 24.1616 73.6451 24.7367C75.8534 24.5066 78.0616 24.2651 80.2699 24.0351C81.305 23.9201 82.5931 24.0121 83.5822 23.69C84.2033 23.7821 84.2953 23.6555 83.8698 23.322C83.6282 22.908 83.5362 22.908 83.6052 23.3335C83.4557 23.644 83.5592 24.6331 83.5592 24.9782C83.4902 29.3372 83.9733 33.6961 84.8704 37.9516C85.0889 38.9752 86.5266 39.6193 87.4007 38.9867C89.7469 37.2845 91.4606 40.4129 91.7136 42.3911C91.8516 43.4837 91.8171 44.6914 91.3686 45.7035C90.805 46.9801 89.8619 46.7271 88.7348 47.1526C87.3316 47.6817 86.9406 48.9583 86.9636 50.35C86.9866 52.0407 87.0786 53.7199 87.1476 55.4105C87.2971 58.8724 87.4812 62.3458 87.6882 65.8077C88.2632 65.2326 88.8383 64.6576 89.4134 64.0825C85.5489 64.508 81.6845 64.9221 77.8201 65.3476C76.9805 65.4396 75.9684 66.0722 76.0949 67.0728C76.4514 69.9596 76.716 73.9276 72.9781 74.5141C71.5864 74.7327 70.2523 74.1691 69.3207 73.1225C68.251 71.9034 68.3891 70.6727 68.021 69.2121C67.1584 65.7847 61.7988 67.3374 59.4181 67.8319C55.8642 68.5795 52.4023 69.6491 48.7334 69.3846C46.5136 69.2236 46.5251 72.6739 48.7334 72.835C52.8738 73.134 56.8188 71.8573 60.8327 71.0523C61.9138 70.8337 63.0065 70.6612 64.1106 70.6037C64.2831 70.5922 64.4441 70.5922 64.6166 70.5807C65.2607 70.6612 65.2837 70.5692 64.7086 70.3047C64.7892 70.7187 64.7777 71.1558 64.8582 71.5698C65.1687 73.1685 65.9968 74.7097 67.1699 75.8483C69.5737 78.1715 73.1851 78.6546 76.1064 76.9984C79.7753 74.9282 80.0168 70.8107 79.5453 67.0613C78.9702 67.6364 78.3952 68.2114 77.8201 68.7865C81.6845 68.361 85.5489 67.9469 89.4134 67.5214C90.299 67.4294 91.1961 66.8083 91.1386 65.7962C90.8855 61.5867 90.667 57.3773 90.506 53.1563C90.483 52.6847 90.4715 52.2247 90.46 51.7531C90.4485 51.4426 90.2185 50.35 90.4025 50.0624C90.1149 50.4995 90.6555 50.2695 91.0005 50.189C91.3686 50.1085 91.7481 49.9819 92.0817 49.7979C93.3468 49.1423 94.1749 47.9807 94.6694 46.6811C95.7161 43.9553 95.3595 40.2634 93.6803 37.8481C91.9436 35.3408 88.3092 34.0757 85.664 35.9964C86.5035 36.3414 87.3546 36.6865 88.1942 37.0315C87.6537 34.4897 87.2856 31.9365 87.1131 29.3487C87.0326 28.072 86.9866 26.7954 86.9981 25.5187C86.9981 24.4031 87.2166 23.1725 86.9291 22.0799C86.2505 19.5611 83.5822 20.2282 81.65 20.4352C78.9817 20.7227 76.3134 20.9987 73.6566 21.2863C72.702 21.3898 71.9659 21.9994 71.9314 23.0115C71.8509 25.1277 71.7129 27.2439 71.4369 29.3487C71.3449 30.0847 71.2874 30.9933 70.8963 31.6489C70.4133 32.4655 69.5392 32.454 68.6766 32.477C66.8709 32.523 65.1802 32.2355 64.3521 30.4298C63.501 28.5666 63.9036 26.3238 64.1566 24.3801C64.2716 23.5175 63.271 22.5629 62.4314 22.6549C56.3242 23.3335 50.2286 24.0121 44.1214 24.6792C41.9476 24.9322 41.9246 28.3826 44.1329 28.141Z" fill="black"/>
</g>
<path d="M66.6797 13.1539C66.6797 10.5883 66.6797 8.0227 66.6797 5.45707C66.6797 4.2315 67.2667 3.24952 67.2667 2" stroke="black" stroke-width="3.18897" stroke-linecap="round"/>
<path d="M44.6655 5.22852C45.1928 6.97922 45.3857 9.18014 46.1984 10.8055C46.521 11.4507 46.7202 12.1351 46.7202 12.8602" stroke="black" stroke-width="3.18897" stroke-linecap="round"/>
<path d="M86.6396 11.3925C87.4135 8.16816 89.3451 5.98154 90.749 3.17383" stroke="black" stroke-width="3.18897" stroke-linecap="round"/>
<path d="M99.2612 29.5919C100.569 27.8815 102.177 26.6761 103.664 25.189C104.347 24.5065 105.613 23.6396 106.012 22.8408" stroke="black" stroke-width="3.18897" stroke-linecap="round"/>
<path d="M102.783 47.4958C104.372 47.4958 107.061 47.8591 108.507 47.0555C109.025 46.7679 110.123 46.6152 110.708 46.6152" stroke="black" stroke-width="3.18897" stroke-linecap="round"/>
<path d="M98.3804 68.9238C101.847 69.73 104.238 72.5397 107.48 73.6202" stroke="black" stroke-width="3.18897" stroke-linecap="round"/>
<path d="M73.7246 83.0127C73.7246 85.125 73.9488 86.9141 74.6052 88.8832" stroke="black" stroke-width="3.18897" stroke-linecap="round"/>
<path d="M49.0683 83.0127C49.0683 84.9603 48.7109 86.4303 47.8942 88.1657C47.6386 88.7089 47.5063 89.811 47.0137 90.0573" stroke="black" stroke-width="3.18897" stroke-linecap="round"/>
<defs>
<clipPath id="clip0_1539_14862">
<rect width="94.7589" height="63.717" fill="white" transform="translate(0.508789 14.2705)"/>
</clipPath>
</defs>
</svg>
