<?xml version="1.0" encoding="utf-8"?><!-- Uploaded to: SVG Repo, www.svgrepo.com, Generator: SVG Repo Mixer Tools -->
<svg width="800px" height="800px" viewBox="0 0 24 24" fill="none" xmlns="http://www.w3.org/2000/svg">
<path d="M21 9C19.3529 9 17.8917 9.79647 16.9808 11.0253M21 6C18.5797 6 16.4104 7.07479 14.9434 8.77313M21 3C17.1326 3 13.7313 4.99586 11.77 8.01376M11.77 8.01376C9.72698 8.16181 8.00348 9.48869 7.25 11.25C4.7 11.6562 3 13.7572 3 16.0315C3 18.7755 5.28335 21 8.1 21L15.75 21C18.0972 21 20 19.1279 20 16.8185C20 15.1039 18.951 13.5202 17.45 12.875C17.4116 12.2181 17.2475 11.5941 16.9808 11.0253M11.77 8.01376C11.8958 8.00465 12.0229 8 12.151 8C13.1755 8 14.1323 8.28298 14.9434 8.77313M14.9434 8.77313C15.8305 9.30914 16.5435 10.0929 16.9808 11.0253" stroke="#000000" stroke-width="2" stroke-linecap="round" stroke-linejoin="round"/>
</svg>