<?xml version="1.0" encoding="UTF-8"?>
<svg width="100" height="110" viewBox="0 0 100 110" fill="none" xmlns="http://www.w3.org/2000/svg">
<g clip-path="url(#clip0_3864_23155)">
<path d="M41.4145 85.4814C41.1898 85.4814 40.9652 85.4397 40.7512 85.3458C40.366 85.1788 40.0558 84.8658 39.906 84.4694L22.8952 40.701C22.5421 40.2315 20.809 38.1656 16.8612 36.4337C10.9983 33.8566 11.2551 24.1639 11.2979 23.058C11.33 22.432 11.7365 21.879 12.3357 21.6599C12.5175 21.5869 12.7101 21.5556 12.9027 21.5556C13.3306 21.5556 13.7479 21.7225 14.0581 22.0355C16.8398 24.8421 20.0173 27.9513 21.1192 28.8694C22.264 28.5982 25.4522 27.3044 26.8644 25.4681C27.6133 24.4978 27.4635 23.8509 27.4207 23.6318C26.5755 19.9488 21.6649 16.8605 21.6221 16.8292C21.0443 16.4745 20.7662 15.7859 20.9267 15.139C21.0871 14.4921 21.6649 14.0122 22.3496 13.9496C22.3496 13.9496 22.6491 13.9287 23.1734 13.9287C25.5592 13.9287 33.551 14.5234 35.8726 22.2442C37.8519 28.8068 36.5466 32.8446 35.7656 34.4618L53.8784 79.2839C54.0389 79.67 54.0282 80.1082 53.857 80.4942C53.6858 80.8802 53.3649 81.1724 52.9583 81.3289L41.9922 85.3771C41.7997 85.4501 41.6071 85.4814 41.4145 85.4814Z" fill="#FFCD02"/>
<path d="M23.1735 15.5041C25.3881 15.5041 32.3315 16.0466 34.3321 22.6927C36.7286 30.6326 33.9898 34.3678 33.9898 34.3678L52.3807 79.8681L41.4253 83.9163L24.3289 39.9705C24.3289 39.9705 22.5636 37.2265 17.5246 35.0146C12.4855 32.8027 12.9028 23.1414 12.9028 23.1414C12.9028 23.1414 19.7927 30.1005 20.6272 30.4761C20.67 30.4969 20.7342 30.5074 20.8198 30.5074C22.339 30.5074 29.935 27.4608 28.9828 23.3083C27.9771 18.9262 22.4781 15.5249 22.4781 15.5249C22.4781 15.5249 22.7455 15.5041 23.1735 15.5041ZM23.1735 12.374C22.6492 12.374 22.3069 12.3949 22.2213 12.4053C20.8519 12.5201 19.6964 13.4695 19.3755 14.7842C19.0438 16.0883 19.6108 17.4551 20.777 18.175C21.911 18.8845 25.2918 21.4824 25.8695 23.9969C25.9016 24.1117 25.7304 24.3725 25.6769 24.4455C24.8745 25.5932 22.8204 26.647 21.5259 27.1269C20.1244 25.8541 17.4711 23.2353 15.2244 20.9712C14.6039 20.3452 13.7694 20.0113 12.9135 20.0113C12.5283 20.0113 12.1432 20.0739 11.7794 20.2096C10.5812 20.6582 9.7681 21.7537 9.7146 23.0057C9.66111 24.216 9.39365 34.879 16.2194 37.8734C19.4503 39.2924 21.023 40.9304 21.4938 41.4938L38.419 85.0326C38.9004 86.2847 40.1308 87.0567 41.4253 87.0567C41.7998 87.0567 42.1849 86.9941 42.5594 86.8481L53.5148 82.7999C54.3172 82.5078 54.9698 81.9026 55.3121 81.141C55.6545 80.3793 55.6759 79.5029 55.3656 78.7308L37.4989 34.5138C38.3762 32.3541 39.3177 28.139 37.4133 21.8267C36.7393 19.594 33.7437 12.374 23.1735 12.374Z" fill="black"/>
<path d="M60.2221 66.3986L45.9716 62.8616C45.2227 62.6738 44.8161 61.8809 45.1264 61.1818L50.5185 48.9121C50.7645 48.3591 51.3851 48.0565 51.9842 48.2026L62.1158 50.7171C62.7149 50.8631 63.1214 51.4161 63.0572 52.0212L61.7841 65.3135C61.7092 66.0751 60.971 66.5864 60.2221 66.3986Z" fill="#FFCD02" stroke="#020202" stroke-width="3" stroke-miterlimit="10" stroke-linecap="round" stroke-linejoin="round"/>
<path d="M61.9341 50.6752L52.1555 48.2546C51.4815 48.0877 51.075 47.4199 51.2461 46.7626L53.2575 39.0314C53.4287 38.3741 54.1134 37.9777 54.7874 38.1446L64.5659 40.5652C65.2399 40.7321 65.6465 41.3998 65.4753 42.0571L63.464 49.7883C63.2928 50.4456 62.6081 50.8421 61.9341 50.6752Z" fill="#FFCD02" stroke="#020202" stroke-width="3" stroke-miterlimit="10" stroke-linecap="round" stroke-linejoin="round"/>
<path d="M82.2722 36.3389C80.5497 35.9111 79.512 34.2105 79.9506 32.5307L81.2665 27.4705C81.7052 25.7907 83.449 24.7786 85.1715 25.2064C86.894 25.6342 87.9318 27.3348 87.4931 29.0146L86.1772 34.0749C85.7386 35.7546 83.9947 36.7667 82.2722 36.3389Z" fill="#FFCD02" stroke="#020202" stroke-width="3" stroke-miterlimit="10" stroke-linecap="round" stroke-linejoin="round"/>
<path d="M64.6092 39.4695C64.5236 39.4695 64.4273 39.4591 64.3417 39.4382L55.4298 37.2264C55.1409 37.1533 54.8948 36.9759 54.7558 36.7151C54.6167 36.4647 54.5846 36.183 54.6702 35.9013C55.7614 32.5522 55.494 29.6621 53.8999 27.5337C52.0062 25.0192 48.3794 23.7359 43.1157 23.7359C40.6015 23.7359 37.638 24.028 34.3321 24.6019C34.2572 24.6123 34.1823 24.6227 34.1074 24.6227C33.5618 24.6227 33.2301 24.2158 33.1232 23.8611C33.0376 23.6002 32.9734 23.0994 33.5083 22.7343C38.3013 19.4269 44.5814 17.7471 52.156 17.7471C57.7514 17.7471 64.0529 18.6861 70.8786 20.5432C71.1139 20.6058 71.3172 20.7415 71.4456 20.9293C72.922 22.9534 76.0139 26.3547 80.1115 26.386C80.4859 26.386 80.8176 26.5425 81.0316 26.8242C81.1493 26.9703 81.3204 27.2728 81.2135 27.6902L79.9617 32.4791C79.8226 33.0321 79.3091 33.2825 78.9025 33.2825C78.6672 33.2825 78.4532 33.2095 78.2606 33.053C76.5382 31.6862 74.8371 30.9871 73.1895 30.9871C69.9157 30.9871 67.3694 33.6059 65.6149 38.7601C65.4865 39.1774 65.0692 39.4695 64.6092 39.4695Z" fill="#FFCD02"/>
<path d="M52.1557 19.3224C57.5585 19.3224 63.646 20.2301 70.2578 22.0038C71.884 24.1844 75.1043 27.6066 79.4907 27.9196L78.6027 31.3209C76.8053 30.048 74.9866 29.4116 73.1892 29.4116C69.2628 29.4116 66.2565 32.2286 64.2559 37.7896L56.3603 35.8282C57.4087 32.2077 57.0022 29.0255 55.1834 26.605C52.9795 23.6627 48.914 22.1708 43.1047 22.1708C41.1789 22.1708 39.0071 22.3377 36.6427 22.6611C40.8473 20.4388 46.0468 19.3224 52.1557 19.3224ZM52.1557 16.1924C42.7302 16.1924 36.525 18.7381 32.5772 21.4613C30.4054 22.9637 31.6358 26.1981 34.1072 26.1981C34.2676 26.1981 34.4388 26.1876 34.6207 26.1563C37.9907 25.5721 40.8045 25.3112 43.1261 25.3112C54.7662 25.3112 54.3596 31.7278 53.1507 35.4421C52.6906 36.8715 53.5572 38.3739 55.0443 38.7495L63.9563 40.9614C64.181 41.0136 64.3949 41.0449 64.6196 41.0449C65.743 41.0449 66.7914 40.3458 67.1552 39.2608C68.8884 34.1797 71.0923 32.5625 73.2106 32.5625C74.6763 32.5625 76.0885 33.3346 77.2654 34.2736C77.7682 34.67 78.3459 34.8578 78.9237 34.8578C80.0898 34.8578 81.2132 34.1066 81.5341 32.8755L82.7859 28.0865C83.2245 26.4172 81.9086 24.8522 80.1326 24.8313C76.6342 24.8104 73.8418 21.5239 72.7613 20.0319C72.4082 19.552 71.8947 19.2077 71.3169 19.0512C63.7958 16.9958 57.4622 16.1924 52.1557 16.1924Z" fill="black"/>
<path d="M14.2612 52.543H72.5045V95.0385L42.7944 108.435L14.2612 95.967V52.543Z" fill="#FFCD02" stroke="#020202" stroke-width="3" stroke-miterlimit="10" stroke-linecap="round" stroke-linejoin="round"/>
<path d="M23.729 61.1572H62.7121V90.06L42.8327 99.1741L23.729 90.6932V61.1572Z" fill="#FFCD02" stroke="#020202" stroke-width="3" stroke-miterlimit="10" stroke-linecap="round" stroke-linejoin="round" stroke-dasharray="12.62 12.62"/>
<path d="M0.802381 20.8247C1.76526 21.3777 2.72813 21.9306 3.69101 22.4836C4.04406 22.6923 4.5255 22.7444 4.93205 22.6401C5.3065 22.5358 5.71305 22.2645 5.89492 21.9202C6.0875 21.555 6.19449 21.1168 6.0554 20.7099C5.92702 20.3239 5.68095 19.99 5.3172 19.7709C4.35432 19.2179 3.39145 18.665 2.42857 18.112C2.07552 17.9033 1.59408 17.8512 1.18753 17.9555C0.81308 18.0598 0.406532 18.3311 0.224656 18.6754C0.0320808 19.0406 -0.0749054 19.4788 0.0641767 19.8857C0.19256 20.2821 0.42793 20.616 0.802381 20.8247Z" fill="black"/>
<path d="M8.90148 11.4561C9.22244 11.8109 9.522 12.176 9.82156 12.5412C9.73597 12.4369 9.65038 12.3325 9.57549 12.2282C10.3351 13.1881 11.0091 14.2106 11.5975 15.2748C11.9934 15.9947 13.0846 16.2868 13.7908 15.8382C14.5397 15.3687 14.7964 14.4714 14.3685 13.6993C13.4912 12.103 12.3999 10.611 11.1803 9.24423C10.9235 8.95209 10.4314 8.78516 10.0462 8.78516C9.65038 8.78516 9.17964 8.95209 8.91218 9.24423C8.61262 9.5468 8.40934 9.93284 8.43074 10.3502C8.44144 10.7779 8.60192 11.1327 8.90148 11.4561Z" fill="black"/>
<path d="M22.0283 1.56548C22.1567 3.27657 22.2744 4.98766 22.4028 6.69874C22.4349 7.11608 22.5633 7.50212 22.8735 7.80469C23.1517 8.07596 23.6117 8.28463 24.0076 8.26376C24.8207 8.23246 25.6766 7.57516 25.6124 6.69874C25.484 4.98766 25.3663 3.27657 25.2379 1.56548C25.2058 1.14814 25.0774 0.762105 24.7672 0.459535C24.489 0.188265 24.029 -0.0204047 23.6331 0.000462262C22.8093 0.0421961 21.9642 0.689071 22.0283 1.56548Z" fill="black"/>
<path d="M39.3174 9.01493C40.3338 7.84638 41.0934 6.5422 41.5641 5.08151C41.6818 4.70591 41.6069 4.21554 41.4036 3.87123C41.2111 3.5478 40.8259 3.23479 40.4408 3.15132C39.5635 2.95309 38.7397 3.41216 38.4615 4.24684C38.3652 4.52854 38.269 4.81024 38.1513 5.08151C38.2048 4.95631 38.2583 4.83111 38.3117 4.70591C37.9908 5.44669 37.5735 6.13529 37.0814 6.77173C37.167 6.6674 37.2526 6.56307 37.3275 6.45873C37.2312 6.5735 37.1349 6.68827 37.0386 6.80304C36.7604 7.12647 36.5679 7.47078 36.5679 7.90898C36.5679 8.29502 36.739 8.75409 37.0386 9.01493C37.3489 9.2862 37.7447 9.49487 38.1727 9.474C38.5792 9.46357 39.0393 9.32793 39.3174 9.01493Z" fill="black"/>
<path d="M86.3702 11.8108C85.7925 13.1359 85.2147 14.4714 84.637 15.7964C84.5193 15.9738 84.4551 16.172 84.4444 16.3807C84.4016 16.5894 84.4016 16.798 84.4765 17.0067C84.5835 17.3719 84.8617 17.7683 85.2147 17.9457C85.5892 18.1335 86.0385 18.2379 86.4558 18.1022C86.8195 17.9875 87.2582 17.7475 87.4187 17.3823C87.9964 16.0573 88.5741 14.7218 89.1518 13.3967C89.2695 13.2194 89.3337 13.0211 89.3444 12.8125C89.3872 12.6038 89.3872 12.3951 89.3123 12.1864C89.2053 11.8213 88.9272 11.4248 88.5741 11.2474C88.1997 11.0596 87.7503 10.9553 87.3331 11.0909C86.9586 11.2057 86.5307 11.4457 86.3702 11.8108Z" fill="black"/>
<path d="M95.2928 25.4054C96.3306 25.4054 97.3576 25.4054 98.3954 25.4054C98.8019 25.4054 99.2406 25.2281 99.5295 24.9464C99.8076 24.6751 100.022 24.2264 100 23.8404C99.9788 23.4335 99.8504 23.0162 99.5295 22.7345C99.2192 22.4528 98.834 22.2754 98.3954 22.2754C97.3576 22.2754 96.3306 22.2754 95.2928 22.2754C94.8862 22.2754 94.4476 22.4528 94.1587 22.7345C93.8806 23.0057 93.6666 23.4544 93.688 23.8404C93.7094 24.2473 93.8378 24.6647 94.1587 24.9464C94.469 25.2281 94.8542 25.4054 95.2928 25.4054Z" fill="black"/>
<path d="M90.7457 36.141C91.4518 36.8609 92.1686 37.5808 92.8747 38.3008C93.1528 38.5825 93.6022 38.7598 94.0087 38.7598C94.2334 38.7703 94.4367 38.7181 94.6293 38.6242C94.8325 38.5616 95.0037 38.4573 95.1428 38.3008C95.421 37.9982 95.6349 37.6122 95.6135 37.1948C95.5921 36.7775 95.4423 36.3914 95.1428 36.0889C94.4367 35.369 93.7199 34.649 93.0138 33.9291C92.7356 33.6474 92.2863 33.4701 91.8797 33.4701C91.655 33.4596 91.4518 33.5118 91.2592 33.6057C91.0559 33.6683 90.8847 33.7726 90.7457 33.9291C90.4675 34.2317 90.2535 34.6177 90.2749 35.0351C90.2963 35.4629 90.4354 35.8385 90.7457 36.141Z" fill="black"/>
<path d="M81.2666 43.2149C81.2666 44.2269 81.2666 45.2286 81.2666 46.2406C81.2666 46.6371 81.4485 47.0648 81.7373 47.3465C82.0155 47.6178 82.4755 47.8265 82.8714 47.8056C83.2886 47.7848 83.7166 47.6596 84.0055 47.3465C84.2943 47.044 84.4762 46.6684 84.4762 46.2406C84.4762 45.2286 84.4762 44.2269 84.4762 43.2149C84.4762 42.8184 84.2943 42.3907 84.0055 42.109C83.7273 41.8377 83.2672 41.629 82.8714 41.6499C82.4542 41.6707 82.0262 41.7959 81.7373 42.109C81.4485 42.4115 81.2666 42.7976 81.2666 43.2149Z" fill="black"/>
</g>
<defs>
<clipPath id="clip0_3864_23155">
<rect width="100" height="110" fill="white"/>
</clipPath>
</defs>
</svg>
