<?xml version="1.0" encoding="utf-8"?><!-- Uploaded to: SVG Repo, www.svgrepo.com, Generator: SVG Repo Mixer Tools -->
<svg width="800px" height="800px" viewBox="0 0 24 24" fill="none" xmlns="http://www.w3.org/2000/svg">
<path fill-rule="evenodd" clip-rule="evenodd" d="M15.2527 1.43981C14.3051 0.892747 13.1841 0.920762 12.2926 1.41459C11.3986 0.91084 10.2692 0.878945 9.3162 1.42916C7.88045 2.25809 7.38889 4.09421 8.21845 5.52961L8.83637 6.5988L5.75883 12H4C2.34315 12 1 13.3431 1 15C1 16.1186 1.61227 17.0943 2.51997 17.6101C1.75806 19.0253 2.25148 20.8071 3.6609 21.6208C5.07093 22.4349 6.87304 21.9733 7.71807 20.5816L9.2856 18H15.4166L16.8523 20.4866C17.681 21.9219 19.5163 22.4137 20.9516 21.585C22.5191 20.68 22.7936 18.7736 21.9374 17.2906C22.5874 16.7403 23 15.9184 23 15C23 13.3432 21.6569 12 20 12H18.8829L15.7588 6.58902L16.3635 5.52315C17.1776 4.08798 16.6816 2.26481 15.2527 1.43981ZM9.95006 4.52885C9.67338 4.0501 9.83733 3.43769 10.3162 3.16121C10.7389 2.91717 11.3548 3.01596 11.625 3.44531L12.285 4.58613L12.8787 3.5442C13.1543 3.06062 13.7707 2.89357 14.2527 3.17186C14.7302 3.44754 14.8959 4.05677 14.6239 4.53635L9.42464 13.7019C9.34908 13.8351 9.44513 14.0003 9.59826 14.0006L11.5527 14.0039C12.4981 14.0516 13.4113 14.5609 13.9035 15.3738C14.0822 15.6689 13.8666 16 13.5216 16L4 15.9999C3.45622 16 3 15.4858 3 15C3 14.4477 3.44772 14 4 14H6.80489C6.87675 14 6.94309 13.9614 6.97867 13.899L11.1382 6.5988L9.95006 4.52885ZM15.945 14.9151C15.8148 14.6313 15.6589 14.3621 15.4804 14.1105L14.3846 12.2124C13.7811 11.1672 13.8781 9.90983 14.5298 8.98378C14.6093 8.87095 14.7756 8.88594 14.8446 9.00542L17.6705 13.9C17.7062 13.9619 17.7722 14 17.8437 14H20C20.5523 14 21 14.4478 21 15C21 15.5 20.5 16 20 16H19.3324C19.1817 16 19.0851 16.1605 19.1557 16.2937L20.318 18.4857C20.5944 18.9644 20.4304 19.5766 19.9516 19.853C19.4729 20.1294 18.8607 19.9653 18.5843 19.4866L15.945 14.9151ZM4.56224 18.0956C4.59859 18.0362 4.6632 18 4.73283 18H6.59036C6.74629 18 6.84225 18.1705 6.76132 18.3038L6.00854 19.5436C5.72785 20.0058 5.12926 20.1592 4.6609 19.8888C4.17647 19.6091 4.01782 18.9851 4.30983 18.508L4.56224 18.0956Z" fill="#0F0F0F"/>
</svg>